<svg width="320" height="320" viewBox="0 0 320 320" fill="none" xmlns="http://www.w3.org/2000/svg">
<path d="M88.7722 126.898L86.0646 130.562C79.9472 138.838 81.6976 150.507 89.9742 156.624C98.2508 162.742 109.919 160.991 116.037 152.715L120.221 147.053M168.292 127.998L204.304 68.0094C209.051 60.1004 219.23 57.4036 227.271 61.9241C235.4 66.4942 238.347 76.7488 233.885 84.9378L189.925 165.615L251.979 100.19C258.962 92.8276 270.568 92.4521 278.012 99.3476C285.706 106.474 285.955 118.561 278.562 126L207.706 197.295L185.5 223M119.729 147.719L136.713 124.74C142.83 116.464 154.499 114.713 162.776 120.831C171.052 126.948 172.803 138.617 166.685 146.893L149.701 169.872M119.729 147.719L127.36 137.395C133.477 129.119 131.727 117.45 123.45 111.333C115.173 105.215 103.505 106.966 97.3873 115.242L67.3576 155.871C44.6553 186.587 51.1512 229.89 81.8666 252.593C112.582 275.295 156.088 268.526 178.79 237.811C190.989 221.305 187.607 197.889 171.102 185.69L119.729 147.719ZM119.729 147.719C108.31 163.169 111.577 184.95 127.027 196.369L140.334 206.205M140.334 206.205L141.68 207.2C141.264 206.873 140.814 206.539 140.334 206.205ZM140.334 206.205C132.299 200.604 115.743 194.573 104.092 209.285L95.2307 221.274" stroke="#9A3D88" stroke-width="7" stroke-linecap="round" stroke-linejoin="round"/>
</svg>
