<svg width="320" height="320" viewBox="0 0 320 320" fill="none" xmlns="http://www.w3.org/2000/svg">
<path d="M43.0842 137.294L45.5103 134.771L45.5103 134.771L43.0842 137.294ZM65.8939 113.575L63.4678 116.098L63.4678 116.098L65.8939 113.575ZM42.6296 114.03L40.1069 111.604L42.6296 114.03ZM66.4788 112.967L64.0527 115.49L64.0527 115.49L66.4788 112.967ZM89.2884 89.2482L91.7144 86.7254L91.7144 86.7254L89.2884 89.2482ZM66.0241 89.7028L63.5014 87.2767L66.0241 89.7028ZM89.8733 88.64L92.2993 86.1172L89.8733 88.64ZM112.683 64.9211L115.109 62.3984L112.683 64.9211ZM89.4186 65.3758L86.8959 62.9497L89.4186 65.3758ZM41.5375 180.29L39.1114 182.813L39.1114 182.813L41.5375 180.29ZM119.86 255.61L122.286 253.087L122.286 253.087L119.86 255.61ZM252.11 195.081L248.625 195.402L248.625 195.402L252.11 195.081ZM203.928 144.512L207.425 144.673L207.425 144.673L203.928 144.512ZM202.676 171.622L204.049 174.841L206.071 173.979L206.172 171.783L202.676 171.622ZM186.322 178.595L184.949 175.376L184.949 175.376L186.322 178.595ZM63.1774 157.788L65.6034 155.265L65.6034 155.265L63.1774 157.788ZM41.1062 158.219L43.6289 160.645L41.1062 158.219ZM231.669 253.425L234.192 255.851L231.669 253.425ZM162.466 211.136C162.553 213.067 164.189 214.562 166.12 214.475C168.051 214.387 169.546 212.751 169.459 210.82L162.466 211.136ZM244.55 113.032L248.036 112.71L244.55 113.032ZM106.632 193.55L45.5103 134.771L40.6582 139.817L101.78 198.596L106.632 193.55ZM63.4678 116.098L124.59 174.877L129.442 169.831L68.3199 111.052L63.4678 116.098ZM45.1524 116.456C50.1112 111.299 58.3113 111.139 63.4678 116.098L68.3199 111.052C60.3769 103.414 47.7454 103.661 40.1069 111.604L45.1524 116.456ZM45.5103 134.771C40.3538 129.813 40.1935 121.612 45.1524 116.456L40.1069 111.604C32.4683 119.547 32.7151 132.178 40.6582 139.817L45.5103 134.771ZM130.027 169.223L68.9048 110.444L64.0527 115.49L125.175 174.268L130.027 169.223ZM86.8624 91.7709L147.984 150.55L152.836 145.504L91.7144 86.7254L86.8624 91.7709ZM68.5469 92.1288C73.5057 86.9723 81.7058 86.8121 86.8624 91.7709L91.7144 86.7254C83.7714 79.0868 71.14 79.3337 63.5014 87.2767L68.5469 92.1288ZM68.9048 110.444C63.7483 105.485 63.588 97.2853 68.5469 92.1288L63.5014 87.2767C55.8628 95.2198 56.1096 107.851 64.0527 115.49L68.9048 110.444ZM153.421 144.896L92.2993 86.1172L87.4472 91.1628L148.569 149.941L153.421 144.896ZM110.257 67.4439L200.571 154.296L205.423 149.25L115.109 62.3984L110.257 67.4439ZM91.9414 67.8018C96.9002 62.6453 105.1 62.485 110.257 67.4439L115.109 62.3984C107.166 54.7598 94.5345 55.0066 86.8959 62.9497L91.9414 67.8018ZM92.2993 86.1172C87.1428 81.1584 86.9826 72.9583 91.9414 67.8018L86.8959 62.9497C79.2573 70.8928 79.5041 83.5242 87.4472 91.1628L92.2993 86.1172ZM39.1114 182.813L117.433 258.133L122.286 253.087L43.9635 177.767L39.1114 182.813ZM255.595 194.76L248.036 112.71L241.065 113.353L248.625 195.402L255.595 194.76ZM200.432 144.35L199.18 171.46L206.172 171.783L207.425 144.673L200.432 144.35ZM201.303 168.402L184.949 175.376L187.695 181.815L204.049 174.841L201.303 168.402ZM60.7513 160.31L101.803 199.789L106.655 194.743L65.6034 155.265L60.7513 160.31ZM43.6289 160.645C48.2647 155.824 55.9307 155.675 60.7513 160.31L65.6034 155.265C57.9962 147.949 45.899 148.186 38.5834 155.793L43.6289 160.645ZM235.78 103.008C216.266 106.988 201.382 123.785 200.432 144.35L207.425 144.673C208.224 127.364 220.753 113.217 237.179 109.867L235.78 103.008ZM234.192 255.851C249.858 239.561 257.669 217.265 255.595 194.76L248.625 195.402C250.512 215.884 243.403 236.174 229.146 250.999L234.192 255.851ZM184.949 175.376C170.729 181.44 161.768 195.693 162.466 211.136L169.459 210.82C168.892 198.294 176.161 186.733 187.695 181.815L184.949 175.376ZM117.433 258.133C150.306 289.744 202.58 288.723 234.192 255.851L229.146 250.999C200.214 281.084 152.371 282.019 122.286 253.087L117.433 258.133ZM43.9635 177.767C39.1429 173.132 38.9931 165.466 43.6289 160.645L38.5834 155.793C31.2678 163.4 31.5042 175.497 39.1114 182.813L43.9635 177.767ZM248.036 112.71C247.501 106.91 242.351 101.668 235.78 103.008L237.179 109.867C238.827 109.531 240.83 110.801 241.065 113.353L248.036 112.71Z" fill="#9A3D88"/>
</svg>
