<svg width="320" height="320" viewBox="0 0 320 320" fill="none" xmlns="http://www.w3.org/2000/svg">
<path d="M71 135.389V186C71 222.451 100.549 252 137 252H183.862C220.313 252 249.863 222.451 249.863 186V159.128C249.863 143.112 236.879 130.128 220.863 130.128H113.962V133.967C113.962 156.058 131.871 173.967 153.962 173.967H180.345M180.345 173.967H188.488C186.142 173.732 183.332 173.691 180.345 173.967ZM180.345 173.967C168.447 175.067 153.733 181.208 154.294 200.27V220.436M157.801 128.374V89.3578M157.801 89.3578C157.801 77.4942 167.418 67.8768 179.282 67.8768C191.146 67.8768 200.763 77.4941 200.763 89.3578V128.374M157.801 89.3578L157.801 130.128M157.801 89.3578C157.801 77.4942 148.184 67.8768 136.32 67.8768C124.456 67.8768 114.839 77.4941 114.839 89.3578V130.128M239.341 136.481L239.341 86.2891C239.341 75.636 230.705 67 220.052 67C209.399 67 200.763 75.636 200.763 86.2891V130.128M71 143.279V115.223C71 103.601 80.4211 94.1799 92.0426 94.1799C103.664 94.1799 113.085 103.601 113.085 115.223V143.279C113.085 154.901 103.664 164.322 92.0426 164.322C80.4211 164.322 71 154.901 71 143.279Z" stroke="#9A3D88" stroke-width="7" stroke-linecap="round" stroke-linejoin="round"/>
</svg>
